<svg id="Layer_1" data-name="Layer 1" xmlns="http://www.w3.org/2000/svg" viewBox="0 0 212.12 82.81"><defs><style>.cls-1{fill:#0c29d0;}.cls-2{fill:#e56c57;}</style></defs><title>OLIE_logo_020520_FINAL_small</title><path class="cls-1" d="M209.16,57.27H195.39a3,3,0,0,0-3,3V74a3,3,0,0,0,3,3h6.84l0,.05,5.59,5.59a.72.72,0,0,0,1.23-.51V77h.07a3,3,0,0,0,3-3V60.23A3,3,0,0,0,209.16,57.27Z"/><path class="cls-2" d="M58.59,49.3c0,16.9-11.93,28.31-29.35,28.31S0,66.2,0,49.3s11.93-28.1,29.25-28.1S58.59,32.5,58.59,49.3Zm-44.91.21c0,10,6.43,16.8,15.56,16.8s15.66-6.84,15.66-16.8-6.43-16.7-15.66-16.7S13.69,39.55,13.69,49.5Z"/><path class="cls-2" d="M87.84,65.37a9.72,9.72,0,0,0,3.52-.77A1.7,1.7,0,0,1,93.65,66l1.07,7.81a1.71,1.71,0,0,1-1,1.79,22.79,22.79,0,0,1-9.31,2.15c-8.3,0-15-5.81-15-17.42V1.84a1.7,1.7,0,0,1,1.7-1.7h10a1.7,1.7,0,0,1,1.7,1.7V59.15C82.76,63.4,84.83,65.37,87.84,65.37Z"/><path class="cls-2" d="M116.77,23.31V75.39a1.7,1.7,0,0,1-1.7,1.7H105a1.7,1.7,0,0,1-1.7-1.7V23.31a1.7,1.7,0,0,1,1.7-1.7h10.07A1.7,1.7,0,0,1,116.77,23.31Z"/><path class="cls-2" d="M175.29,60.21l5.39,5a1.71,1.71,0,0,1,.11,2.41,30.43,30.43,0,0,1-23.25,10c-17.32,0-29.14-11.3-29.14-28.21,0-16.49,10.89-28.1,28.1-28.21,15-.2,25.18,8.75,26.45,23.37a1.71,1.71,0,0,1-1.24,1.79L145.51,56.61a1.71,1.71,0,0,0-1,2.52,15.57,15.57,0,0,0,13.94,7.68c5.32,0,10.3-2.27,14.45-6.56A1.71,1.71,0,0,1,175.29,60.21Zm-31-12.72L168,40.72a1.71,1.71,0,0,0,1-2.47c-2.42-4.46-6.37-6.48-11.76-6.48-8.48,0-14.07,4.81-15.08,13.88A1.71,1.71,0,0,0,144.29,47.49Z"/><rect class="cls-2" x="103.34" width="13.71" height="13.71" rx="1.7" ry="1.7"/></svg>